<svg width="18" height="18" viewBox="0 0 18 18" fill="none" xmlns="http://www.w3.org/2000/svg">
<path d="M9 1.49985C11.9025 1.49985 14.25 3.84735 14.25 6.74985C14.25 8.05485 13.875 9.27735 13.1925 10.3798C12.48 11.5348 11.5425 12.5248 10.8225 13.6798C10.47 14.2423 10.215 14.7673 9.945 15.3748C9.75 15.7873 9.5925 16.4998 9 16.4998C8.4075 16.4998 8.25 15.7873 8.0625 15.3748C7.785 14.7673 7.5375 14.2423 7.185 13.6798C6.465 12.5323 5.5275 11.5423 4.815 10.3798C4.125 9.27735 3.75 8.05485 3.75 6.74985C3.75 3.84735 6.0975 1.49985 9 1.49985ZM9 8.81235C10.035 8.81235 10.875 7.97235 10.875 6.93735C10.875 5.90235 10.035 5.06235 9 5.06235C7.965 5.06235 7.125 5.90235 7.125 6.93735C7.125 7.97235 7.965 8.81235 9 8.81235Z" fill="white"/>
</svg>
