<svg width="27" height="27" viewBox="0 0 27 27" fill="none" xmlns="http://www.w3.org/2000/svg">
<path d="M20.8331 13.9291C20.8331 18.2387 17.3305 21.7411 13.0207 21.7411C8.71086 21.7411 5.20831 18.2387 5.20831 13.9291C5.20831 9.61947 8.71086 6.11709 13.0207 6.11709C17.3305 6.11709 20.8331 9.61947 20.8331 13.9291ZM22.1351 13.9291C22.1351 8.89035 18.0597 4.81509 13.0207 4.81509C7.9817 4.81509 3.90625 8.89035 3.90625 13.9291C3.90625 18.9678 7.9817 23.0431 13.0207 23.0431C18.0597 23.0431 22.1351 18.9678 22.1351 13.9291ZM13.0207 13.2781L9.1145 13.2781L9.1145 14.5801L13.0207 14.5801L13.0207 17.8351L16.9269 13.9291L13.0207 10.0231L13.0207 13.2781Z" fill="white"/>
</svg>
