<svg width="36" height="29" viewBox="0 0 36 29" fill="none" xmlns="http://www.w3.org/2000/svg">
<path d="M35.4999 28.527L30.4999 8.32695L29.1999 14.127C31.1333 14.127 32.7666 13.527 34.0999 12.327C35.3666 11.127 35.9999 9.49362 35.9999 7.42695C35.9999 5.42695 35.3666 3.79362 34.0999 2.52695C32.7666 1.26029 31.1666 0.626953 29.2999 0.626953C27.3666 0.626953 25.7999 1.29362 24.5999 2.62695C23.3999 3.89362 22.7999 5.49362 22.7999 7.42695C22.7999 8.09362 22.8666 8.76029 22.9999 9.42695C23.0666 10.027 23.2333 10.7603 23.4999 11.627C23.6999 12.427 24.0333 13.427 24.4999 14.627L29.1999 28.527H35.4999Z" fill="white"/>
<path d="M12.8437 28.527L7.84368 8.32695L6.54368 14.127C8.47701 14.127 10.1103 13.527 11.4437 12.327C12.7103 11.127 13.3437 9.49362 13.3437 7.42695C13.3437 5.42695 12.7103 3.79362 11.4437 2.52695C10.1103 1.26029 8.51034 0.626953 6.64368 0.626953C4.71034 0.626953 3.14368 1.29362 1.94368 2.62695C0.743677 3.89362 0.143677 5.49362 0.143677 7.42695C0.143677 8.09362 0.210344 8.76029 0.343677 9.42695C0.410344 10.027 0.57701 10.7603 0.843677 11.627C1.04368 12.427 1.37701 13.427 1.84368 14.627L6.54368 28.527H12.8437Z" fill="white"/>
</svg>
