<svg width="14" height="14" viewBox="0 0 14 14" fill="none" xmlns="http://www.w3.org/2000/svg">
<path d="M7.73449 1.75004C4.76532 1.66838 2.33282 4.05421 2.33282 7.00005H1.28866C1.02616 7.00005 0.897822 7.31505 1.08449 7.49588L2.71199 9.12921C2.82866 9.24588 3.00949 9.24588 3.12616 9.12921L4.75366 7.49588C4.93449 7.31505 4.80616 7.00005 4.54366 7.00005H3.49949C3.49949 4.72504 5.35449 2.88754 7.64116 2.91671C9.81116 2.94588 11.637 4.77171 11.6662 6.94171C11.6953 9.22255 9.85782 11.0834 7.58282 11.0834C6.64366 11.0834 5.77449 10.7625 5.08616 10.22C4.85282 10.0392 4.52616 10.0567 4.31616 10.2667C4.07116 10.5117 4.08866 10.9259 4.36282 11.1359C5.24949 11.8359 6.36366 12.25 7.58282 12.25C10.5287 12.25 12.9145 9.81754 12.8328 6.84838C12.757 4.11254 10.4703 1.82588 7.73449 1.75004ZM7.43699 4.66671C7.19782 4.66671 6.99949 4.86504 6.99949 5.10421V7.25088C6.99949 7.45505 7.11032 7.64755 7.28532 7.75255L9.10532 8.83171C9.31532 8.95421 9.58366 8.88421 9.70616 8.68005C9.82866 8.47005 9.75866 8.20171 9.55449 8.07921L7.87449 7.08171V5.09838C7.87449 4.86504 7.67616 4.66671 7.43699 4.66671Z" fill="white"/>
</svg>
