<svg width="100" height="100" viewBox="0 0 100 100" fill="none" xmlns="http://www.w3.org/2000/svg">
<path d="M41.5029 16.6011H58.1041V33.2022H41.5029V16.6011Z" fill="white"/>
<path d="M16.6016 66.4045H33.2027V83.0057H16.6016V66.4045Z" fill="white"/>
<path d="M16.6016 41.5029H33.2027V58.1041H16.6016V41.5029Z" fill="white"/>
<path d="M16.6016 16.6011H33.2027V33.2022H16.6016V16.6011Z" fill="white"/>
<path d="M58.1041 51.5466V41.5029H41.5029V58.1041H51.5466L58.1041 51.5466Z" fill="white"/>
<path d="M86.6584 46.8568L81.8026 42.001C81.1385 41.3369 80.0595 41.3369 79.3954 42.001L75.7432 45.6532L83.0062 52.9162L86.6584 49.264C87.3225 48.5999 87.3225 47.5208 86.6584 46.8568Z" fill="white"/>
<path d="M45.6533 75.7429V83.0059H52.9163L80.5987 55.3235L73.3357 48.0605L45.6533 75.7429Z" fill="white"/>
<path d="M66.4043 16.6011H83.0054V33.2022H66.4043V16.6011Z" fill="white"/>
</svg>
