<svg width="100" height="100" viewBox="0 0 100 100" fill="none" xmlns="http://www.w3.org/2000/svg">
<path d="M49.8038 24.9016C54.3692 24.9016 58.1044 28.6369 58.1044 33.2022C58.1044 37.7675 54.3692 41.5028 49.8038 41.5028C45.2385 41.5028 41.5033 37.7675 41.5033 33.2022C41.5033 28.6369 45.2385 24.9016 49.8038 24.9016ZM49.8038 66.4045C61.0096 66.4045 73.8755 71.7584 74.7056 74.7051H24.9021C25.8567 71.7169 38.6396 66.4045 49.8038 66.4045ZM49.8038 16.6011C40.6317 16.6011 33.2027 24.0301 33.2027 33.2022C33.2027 42.3743 40.6317 49.8034 49.8038 49.8034C58.976 49.8034 66.405 42.3743 66.405 33.2022C66.405 24.0301 58.976 16.6011 49.8038 16.6011ZM49.8038 58.1039C38.7226 58.1039 16.6016 63.6653 16.6016 74.7051V83.0056H83.0061V74.7051C83.0061 63.6653 60.8851 58.1039 49.8038 58.1039Z" fill="white"/>
</svg>
