<svg xmlns="http://www.w3.org/2000/svg" viewBox="0 0 232.48 31.54">
    <title>logo_investeri_withe_smol</title>
    <g id="Слой_2" >
        <g id="Слой_1-2">
            <path
                d="M45.47,13.91c.66-1,.86-1.17.6-2.4A6.46,6.46,0,0,1,48.43,10a2.93,2.93,0,0,1,.08,2.6,3.08,3.08,0,0,1-1.4,1.67,2.37,2.37,0,0,1-1.25-.16Z"
                style="fill:#fff"/>
            <path
                d="M61.12.69c.57-.15.6-.19,1.15.13.51,2.5.09,5.94.09,8.53l0,20.09a1.48,1.48,0,0,1-.83.38L61,29.44l-.1-17.9C60.92,8,60.57,4.12,61.12.69Z"
                style="fill:#fff"/>
            <path
                d="M164.58,9.69a1.57,1.57,0,0,1,.52-.16c1.54-.15,15.37-.2,15.85.2l.21,2.28c-1.51,0-4.42-.35-5.79.15l-.1,1.09v6.57h-5l-.07-7.76c-1.31,0-4.74.36-5.66-.36Z"
                style="fill:#fff"/>
            <path
                d="M221.47,9.69l.11,0a50.13,50.13,0,0,1,8-.15c.87,0,2.11-.15,2.79.36a3.16,3.16,0,0,1-.25,2.06l-2.74.13-.07,5.25a8.93,8.93,0,0,1,2.81.17l.21.13.11,1.82c-.65.5-1.72.32-2.54.33H221.5l-.32-.33a3.82,3.82,0,0,1,.44-2.09l2.53.06c.44-.94.11-4.29.11-5.45a6.37,6.37,0,0,1-2.89-.18A4.36,4.36,0,0,1,221.47,9.69Z"
                style="fill:#fff"/>
            <path
                d="M74.78,9.44a63.6,63.6,0,0,0,7.69.07,12.35,12.35,0,0,1,3,.18,4.24,4.24,0,0,1,.18,2c-.66.43-2.24.34-3,.38l0,5.22c.92.08,2.41,0,3.1.57l-.09,1.58a1.57,1.57,0,0,1-1.07.35l-7.43,0a10.11,10.11,0,0,1-2.2,0c-.09,0-.31-.3-.39-.38a3.55,3.55,0,0,1,.39-2.12l2.25.06c.71-.83.39-4,.39-5.25a6.59,6.59,0,0,1-3.05-.44A4.9,4.9,0,0,1,74.78,9.44Z"
                style="fill:#fff"/>
            <path
                d="M107.94,9.44c1.08.12,3.92-.32,4.7.13.4.23.94,1.43,1.23,1.9l3.47,5.46c1.59-2.46,2.93-5.25,4.8-7.48a18.23,18.23,0,0,1,5,.2,3.89,3.89,0,0,1-.85,1.71l-5.89,8.42a41.67,41.67,0,0,1-6.32-.16L110.26,14C109.53,13,107.71,10.65,107.94,9.44Z"
                style="fill:#fff"/>
            <path
                d="M129.19,9.52H137c1.25,0,7.14-.29,7.84.41a3.11,3.11,0,0,1-.2,2.07c-3.33-.43-7,0-10.37.1l-.38.46.32.57a11,11,0,0,0,3.1.19l4.83.17.37.44c-.06.83,0,1.14-.56,1.78l-2.87.1c-1.13,0-4.15-.16-5,.5l-.07.5c.6.67,1.14.49,2,.5l6.21,0a4.72,4.72,0,0,1,2.57.28c.12.75.43,1.52,0,2.15l-15.5.1Z"
                style="fill:#fff"/>
            <path
                d="M153.18,9.15c2.28-.13,7-.15,8.93,1.38a2.37,2.37,0,0,1,1,1.82c-1.67,1.66-6.36-.88-8.52-.75a3.16,3.16,0,0,0-2.13.72l.13.37a7.33,7.33,0,0,0,2.8.56,22.49,22.49,0,0,1,6.31,1.12,3.33,3.33,0,0,1,2.13,2,2.35,2.35,0,0,1-.55,1.73c-1.26,1.57-4.81,1.72-6.69,1.92a20.83,20.83,0,0,1-8.08-.93,2.8,2.8,0,0,1-1.71-1.76c-.17-.4-.09-.45.07-.84a7.48,7.48,0,0,1,4.09,0c1.38.44,2.44,1.15,3.95,1.16,1.17,0,2.65,0,3.49-.85-.69-1.06-7.72-1.33-9.45-2.05a3.06,3.06,0,0,1-1.85-2,4,4,0,0,1,.74-2.06A16.63,16.63,0,0,1,153.18,9.15Z"
                style="fill:#fff"/>
            <path
                d="M196.57,13.4l0,1.92c-1.12,1.44-6.59-.27-8.23,1l0,.55c1.77,1.45,8.5-.48,10.75.77,0,.73.29,1.45-.19,2l-15.59.14,0-10.37c3.85.21,7.8,0,11.66,0,1.08,0,3.23-.27,4.08.31.05.8.26,1.52-.2,2.21h-2.19l-6.17,0a4.34,4.34,0,0,0-1.91.2l-.23.15V13l.21.16a4.43,4.43,0,0,0,1.76.16Z"
                style="fill:#fff"/>
            <path
                d="M104.55,9.44a1.88,1.88,0,0,1,.9.15,11.5,11.5,0,0,1,.23,3.47l-.09,6.74c-1.61,0-4,.31-5.51-.18-.58-.18-1.42-1.17-1.88-1.6l-4.72-4.26v6l-4,.08a1.52,1.52,0,0,1-1-.27V9.5c1.51,0,3.82-.3,5.25,0,.48.12,1.31,1.05,1.69,1.4l5.12,4.65V9.65C101.35,9.23,103.57,9.46,104.55,9.44Z"
                style="fill:#fff"/>
            <path
                d="M40.1,3.68c-.74.33-3.68-.79-4.78-1a31.66,31.66,0,0,0-10.41-.33C22.6,2.8,20.24,3.66,18,4a22.55,22.55,0,0,1-3.08.08l-4.36,0-.33.34a4.21,4.21,0,0,1,.16,2l0,0c-.12.3-.52.48-.81.59-1.76.7-6.33,2.07-7.13,3.89l0,.07-.26-.1C2.1,9.05,6,5.51,7.31,4.19a28.84,28.84,0,0,1-3.92-.53,46.18,46.18,0,0,0,4.83-.75C10.68,2.29,13,1.34,15.52.8A42.54,42.54,0,0,1,25.4,0a29.67,29.67,0,0,1,5.94.71c1.74.41,3.93,1.4,5.68,1.33L38.14.49l.38.06A6.66,6.66,0,0,0,40.1,3.68Z"
                style="fill:#fff"/>
            <path
                d="M218.12,17.33l-2.2-1.87c1-.43,2.17-.82,2.72-1.78a2.71,2.71,0,0,0-.26-2c-2.42-2.37-6-2.1-9.13-2.12L202,9.45l-.18,10.37,5.14-.06,0-3.42a14.71,14.71,0,0,1,4.73.34c.66.7,2.13,2.7,2.89,3s3.12.13,4,.16l1-.2A3.73,3.73,0,0,0,218.12,17.33Zm-5.74-3.53a14.26,14.26,0,0,1-5.13,0c-.49-.5-.37-.71-.37-1.38l.64-.51a15.66,15.66,0,0,1,3.87,0,2.78,2.78,0,0,1,2,.77C213.17,13.39,213,13.41,212.38,13.8Z"
                style="fill:#fff"/>
            <path
                d="M48.19,16a2.77,2.77,0,0,0-2-1.1c-1.89-.27-4.21,1-5.89,1.78a5.92,5.92,0,0,1-2.3.87c.08-.53.26-.6.68-.9a22.74,22.74,0,0,1,4.69-2.11A6.69,6.69,0,0,1,45,13.9,8,8,0,0,0,45.15,12c-.82-1-1.39-.83-2.49-1.33a25,25,0,0,1-2.4-1.4l4.9.19a5.6,5.6,0,0,0,1.23,0,4.45,4.45,0,0,0,.79-.6c-1.34-.45-2.59-1.1-3.92-1.56a9.17,9.17,0,0,1-2.14-.64l-.19-.15a1.52,1.52,0,0,0,.65-.88l-.75-.89-1.07.75c-.56-.2-.89-.85-1.31-1a18.88,18.88,0,0,0-13,1c-.9.43-1.66,1.13-2.52,1.62C21.83,8.45,21,9.55,21.18,11.4a2.64,2.64,0,0,0,.92,1.81,5.27,5.27,0,0,0,4,1c1.6-.17,3.13-1.48,4.52-2.25a23.35,23.35,0,0,1,2.87-1.18c-1.24,1.52-3.47,3.8-3.26,5.9a3.76,3.76,0,0,0,1.19,2.4,1.28,1.28,0,0,0,.93.4c2.36.06,4.65-.36,7,.2a21.23,21.23,0,0,1,4.16,1.62c.46.23,1.27.77,1.75.72h0a11.8,11.8,0,0,0,1.26-1.95,6.84,6.84,0,0,1,.62-1.59,1.81,1.81,0,0,1,.37-.1l.87.8.45-.2A4.42,4.42,0,0,0,48.19,16Zm-15-7.59a1.77,1.77,0,0,1-.31.15c-.84.26-2.92-.39-3.7-.8-.38-.19-.38-.24-.51-.65a7.64,7.64,0,0,1,2.59-.42,7.13,7.13,0,0,1,.62,1.11l.38-.06a6.27,6.27,0,0,1,.09-1.37l.22,0C34.32,6,37,8.05,38.4,9,36.42,9,35.32,7.69,33.19,8.43Z"
                style="fill:#fff"/>
            <path
                d="M34.17,29.33l-.63,2.21c-4.08-4.48-9.09-5.7-14.75-6.93A38.92,38.92,0,0,1,12.48,23a17,17,0,0,1-4.09-2.3,13,13,0,0,0-2.77-2.13c1.9,3.47,4.46,5,8.2,6.07,2.94.86,6.13,1.35,7.74,4.3l.75,1.55A34.67,34.67,0,0,0,18,28.42c-4.76-1.75-9.16-2.53-13.31-5.8a6.83,6.83,0,0,1-2.55-3.08c-.65-2.18.27-2.66.58-4.58a1.91,1.91,0,0,0-1.31.67c-.51.47-.89,1-1.42,1.51A13.65,13.65,0,0,1,3.56,11.3,19.07,19.07,0,0,1,11.3,7.48l1.88,2c-1.34.78-2.8,1.75-3.24,3.36a2.6,2.6,0,0,0,.21,2,7,7,0,0,0,.61.82l.31,0c-.36-1.57-.52-2.16.37-3.6a2.21,2.21,0,0,1,1-.84l.45.35a6.42,6.42,0,0,0,.07,2.86,12,12,0,0,0,3,4.73,22,22,0,0,0,7.48,4.17c-1.49-1.17-3.55-2.62-4.53-4.22-.62-1-1-2.17-1.68-3.12l-.36.11a5.07,5.07,0,0,0,.32,2l-.45.37a13.63,13.63,0,0,1-2.47-4.93,17.69,17.69,0,0,1,.31-3.24,10.69,10.69,0,0,1,3.39-4,20.8,20.8,0,0,1,6.8-2.71A25.82,25.82,0,0,1,29,3.15C26.11,4.26,23.48,5,21,6.84c-1.47,2.41-2,3.94-1.33,6.72s3.53,4.81,5.84,6.22a3.75,3.75,0,0,0,1.55.48l.45-.22c-.23-.65-.78-.9-1.4-1.2a6.14,6.14,0,0,1-1.39-.93c3.63.88,7.09,1.85,9.15,5.23C34.76,24.66,34.58,27.65,34.17,29.33Z"
                style="fill:#fff"/>
        </g>
    </g>
</svg>
