<svg xmlns="http://www.w3.org/2000/svg" viewBox="0 0 69.18 9.38"><title>Ресурс 5</title><g id="Слой_2" data-name="Слой 2"><g id="Слой_1-2" data-name="Слой 1"><path d="M13.53,4.14c.2-.31.25-.35.18-.72a1.92,1.92,0,0,1,.7-.45.9.9,0,0,1,0,.77,1,1,0,0,1-.42.5.59.59,0,0,1-.37,0Z" style="fill:#fff"/><path d="M18.19.21c.17,0,.18-.06.34,0a14.35,14.35,0,0,1,0,2.54v6a.44.44,0,0,1-.25.11l-.14-.11,0-5.33A20.33,20.33,0,0,1,18.19.21Z" style="fill:#fff"/><path d="M49,2.88a.42.42,0,0,1,.16,0,42.45,42.45,0,0,1,4.71.06l.07.67a6.64,6.64,0,0,0-1.73.05l0,.32v2h-1.5l0-2.31c-.39,0-1.41.11-1.69-.1Z" style="fill:#fff"/><path d="M65.9,2.88h0a14.76,14.76,0,0,1,2.4,0,1.65,1.65,0,0,1,.83.11c0,.24,0,.41-.08.61l-.81,0,0,1.56a3.28,3.28,0,0,1,.84,0l.06,0,0,.54a1.29,1.29,0,0,1-.76.1H65.91l-.1-.1A1.11,1.11,0,0,1,66,5.16l.75,0a6.7,6.7,0,0,0,0-1.62,1.91,1.91,0,0,1-.86-.05A1.35,1.35,0,0,1,65.9,2.88Z" style="fill:#fff"/><path d="M22.25,2.81a19.42,19.42,0,0,0,2.29,0,3.77,3.77,0,0,1,.89,0,1.36,1.36,0,0,1,.05.6,2.28,2.28,0,0,1-.91.11V5.14c.27,0,.71,0,.92.17l0,.47a.46.46,0,0,1-.32.11H22.93a2.82,2.82,0,0,1-.65,0s-.09-.09-.12-.12a1.05,1.05,0,0,1,.12-.63l.67,0c.21-.24.11-1.2.11-1.56a1.94,1.94,0,0,1-.9-.13A1.52,1.52,0,0,1,22.25,2.81Z" style="fill:#fff"/><path d="M32.12,2.81a6.38,6.38,0,0,1,1.4,0,2.08,2.08,0,0,1,.36.56l1,1.63a23.38,23.38,0,0,1,1.42-2.23,5.75,5.75,0,0,1,1.5.06,1.13,1.13,0,0,1-.26.51L35.83,5.89a13.12,13.12,0,0,1-1.88,0L32.81,4.17C32.59,3.85,32.05,3.17,32.12,2.81Z" style="fill:#fff"/><path d="M38.44,2.83h2.32A8.32,8.32,0,0,1,43.09,3a.85.85,0,0,1-.06.61A19.81,19.81,0,0,0,40,3.6l-.12.14.1.17a3.54,3.54,0,0,0,.92.06l1.44,0,.11.13c0,.24,0,.34-.17.53l-.85,0a3.88,3.88,0,0,0-1.5.14l0,.15c.18.21.34.15.59.15H42.3a1.33,1.33,0,0,1,.77.08c0,.22.12.45,0,.64l-4.61,0Z" style="fill:#fff"/><path d="M45.58,2.72a4.91,4.91,0,0,1,2.66.41.74.74,0,0,1,.29.55c-.5.49-1.9-.27-2.54-.23a.92.92,0,0,0-.63.21l0,.12a2.37,2.37,0,0,0,.84.16,7,7,0,0,1,1.88.34,1,1,0,0,1,.63.57.74.74,0,0,1-.16.52c-.38.47-1.43.51-2,.57a6.33,6.33,0,0,1-2.41-.27.86.86,0,0,1-.51-.53c-.05-.12,0-.13,0-.25a2.3,2.3,0,0,1,1.22,0,3.5,3.5,0,0,0,1.18.35,1.49,1.49,0,0,0,1-.25c-.21-.32-2.3-.4-2.82-.61a.92.92,0,0,1-.55-.59A1.25,1.25,0,0,1,44,3.16,5.21,5.21,0,0,1,45.58,2.72Z" style="fill:#fff"/><path d="M58.49,4v.57c-.33.43-2-.08-2.45.3V5c.53.43,2.53-.15,3.2.22,0,.22.08.44-.06.61l-4.64,0V2.81c1.15.07,2.32,0,3.47,0a2.9,2.9,0,0,1,1.22.09,1.06,1.06,0,0,1-.06.66H56.69a1.34,1.34,0,0,0-.57.06l-.07,0v.18l.06,0a1.32,1.32,0,0,0,.53,0Z" style="fill:#fff"/><path d="M31.11,2.81a.5.5,0,0,1,.27,0,3.6,3.6,0,0,1,.07,1l0,2a6,6,0,0,1-1.64,0,2.51,2.51,0,0,1-.56-.48l-1.4-1.27V5.88l-1.2,0a.38.38,0,0,1-.29-.08v-3a8.22,8.22,0,0,1,1.57,0c.14,0,.39.31.5.41l1.52,1.39V2.87A4,4,0,0,1,31.11,2.81Z" style="fill:#fff"/><path d="M11.93,1.09c-.22.1-1.09-.23-1.42-.29A9.77,9.77,0,0,0,7.41.7c-.69.13-1.39.39-2.07.49a6.88,6.88,0,0,1-.91,0H3.13L3,1.31c0,.16.12.44.05.59v0c0,.09-.15.14-.24.17C2.31,2.3,1,2.71.71,3.25v0l-.08,0c0-.55,1.17-1.6,1.56-2A11.35,11.35,0,0,1,1,1.09C1.48,1,2,1,2.45.87,3.18.68,3.88.4,4.62.24A12.08,12.08,0,0,1,7.56,0,8.82,8.82,0,0,1,9.33.22,7.14,7.14,0,0,0,11,.61l.33-.46h.11A2,2,0,0,0,11.93,1.09Z" style="fill:#fff"/><path d="M64.9,5.16l-.65-.56a1.72,1.72,0,0,0,.81-.53.79.79,0,0,0-.08-.6,3.65,3.65,0,0,0-2.72-.63l-2.15,0L60.05,5.9l1.53,0v-1A4.72,4.72,0,0,1,63,5a5.81,5.81,0,0,0,.86.91,5.17,5.17,0,0,0,1.19,0l.29,0A1.07,1.07,0,0,0,64.9,5.16Zm-1.7-1a4.37,4.37,0,0,1-1.53,0c-.15-.15-.11-.21-.11-.41l.19-.16a4.92,4.92,0,0,1,1.15,0,.84.84,0,0,1,.59.23C63.43,4,63.37,4,63.2,4.11Z" style="fill:#fff"/><path d="M14.34,4.77a.8.8,0,0,0-.59-.33A3.5,3.5,0,0,0,12,5a1.93,1.93,0,0,1-.69.26c0-.16.08-.18.21-.27a7,7,0,0,1,1.39-.63,1.77,1.77,0,0,1,.49-.19,2.18,2.18,0,0,0,0-.57c-.24-.28-.41-.24-.74-.39s-.48-.28-.71-.42l1.46.06a1.43,1.43,0,0,0,.36,0A1.31,1.31,0,0,0,14,2.64c-.4-.14-.77-.33-1.17-.47A2.44,2.44,0,0,1,12.24,2l-.06,0a.44.44,0,0,0,.19-.27l-.22-.26-.32.22c-.17-.06-.26-.25-.39-.29a5.64,5.64,0,0,0-3.86.28c-.27.13-.49.34-.75.49A1.64,1.64,0,0,0,6.3,3.39a.82.82,0,0,0,.28.54,1.58,1.58,0,0,0,1.19.31,4.06,4.06,0,0,0,1.35-.67A6.32,6.32,0,0,1,10,3.22c-.37.45-1,1.13-1,1.75a1.13,1.13,0,0,0,.36.72.38.38,0,0,0,.27.12,9.64,9.64,0,0,1,2.08.06,6.15,6.15,0,0,1,1.23.48c.14.07.38.23.52.21h0A3.87,3.87,0,0,0,13.85,6,1.76,1.76,0,0,1,14,5.51l.11,0,.26.24.13-.06A1.32,1.32,0,0,0,14.34,4.77ZM9.88,2.51l-.1,0a2.06,2.06,0,0,1-1.1-.24c-.11-.05-.11-.07-.15-.19A2.25,2.25,0,0,1,9.3,2a2.17,2.17,0,0,1,.19.33l.11,0a1.89,1.89,0,0,1,0-.41h.06c.52-.1,1.33.5,1.74.79C10.84,2.68,10.51,2.29,9.88,2.51Z" style="fill:#fff"/><path d="M10.17,8.73,10,9.38C8.77,8.05,7.28,7.69,5.59,7.32a11.27,11.27,0,0,1-1.88-.48A5.15,5.15,0,0,1,2.5,6.16a3.64,3.64,0,0,0-.83-.63,3.6,3.6,0,0,0,2.44,1.8c.88.26,1.83.4,2.31,1.28l.22.46a10.69,10.69,0,0,0-1.28-.61,12.84,12.84,0,0,1-4-1.73,2.07,2.07,0,0,1-.76-.92C.45,5.17.72,5,.81,4.45a.59.59,0,0,0-.39.2C.27,4.79.16,5,0,5.1A4.08,4.08,0,0,1,1.06,3.36a5.57,5.57,0,0,1,2.3-1.13l.56.61a1.82,1.82,0,0,0-1,1A.75.75,0,0,0,3,4.42a2.27,2.27,0,0,0,.18.25h.09A1.13,1.13,0,0,1,3.4,3.61a.64.64,0,0,1,.29-.25l.13.1a2,2,0,0,0,0,.85,3.58,3.58,0,0,0,.88,1.41A6.52,6.52,0,0,0,7,7,5.6,5.6,0,0,1,5.6,5.7a10.18,10.18,0,0,0-.5-.92L5,4.81a1.42,1.42,0,0,0,.1.58L5,5.5A4,4,0,0,1,4.22,4a5.23,5.23,0,0,1,.09-1,3.32,3.32,0,0,1,1-1.19,6.12,6.12,0,0,1,2-.81A7.94,7.94,0,0,1,8.62.94,9.5,9.5,0,0,0,6.24,2a2.26,2.26,0,0,0-.4,2A3.51,3.51,0,0,0,7.58,5.89,1.18,1.18,0,0,0,8,6L8.17,6c-.06-.19-.23-.27-.41-.35a2.36,2.36,0,0,1-.42-.28,3.94,3.94,0,0,1,2.73,1.55A3,3,0,0,1,10.17,8.73Z" style="fill:#fff"/></g></g></svg>