<svg width="5322" height="900" viewBox="0 0 5322 900" fill="none" xmlns="http://www.w3.org/2000/svg">
<rect width="5322" height="900" rx="128" fill="#0077FF"/>
<rect x="300" y="300" width="300" height="300" rx="64" fill="white"/>
<path d="M400 448C400 425.373 400 414.059 407.029 407.029C414.059 400 425.373 400 448 400H452C474.627 400 485.941 400 492.971 407.029C500 414.059 500 425.373 500 448V452C500 474.627 500 485.941 492.971 492.971C485.941 500 474.627 500 452 500H448C425.373 500 414.059 500 407.029 492.971C400 485.941 400 474.627 400 452V448Z" fill="#0077FF"/>
<path d="M453.208 472.042C430.417 472.042 417.417 456.417 416.875 430.417H428.292C428.667 449.5 437.083 457.583 443.75 459.25V430.417H454.5V446.875C461.084 446.167 468 438.667 470.333 430.417H481.083C479.292 440.584 471.792 448.083 466.458 451.167C471.792 453.667 480.334 460.208 483.584 472.042H471.75C469.208 464.125 462.875 458 454.5 457.167V472.042H453.208Z" fill="white"/>
<rect x="900" y="300" width="774" height="300" rx="64" fill="white"/>
<path d="M1173.82 462.042C1173.82 469.634 1166.75 475.131 1156.81 475.131H1133.51V428.01H1156.02C1165.71 428.01 1172.51 433.246 1172.51 440.576C1172.51 445.55 1169.9 448.691 1165.97 450.524C1170.16 452.094 1173.82 456.283 1173.82 462.042ZM1143.72 436.649V446.859H1155.76C1159.42 446.859 1161.78 444.764 1161.78 441.885C1161.78 439.005 1159.16 436.649 1155.76 436.649H1143.72ZM1156.81 466.492C1160.73 466.492 1163.61 464.136 1163.61 460.733C1163.61 457.33 1160.99 454.974 1156.81 454.974H1143.72V466.492H1156.81Z" fill="black"/>
<path d="M1212.3 474.869L1196.07 456.283H1193.46V474.869H1182.98V428.01H1193.46V446.073H1196.07L1211.78 428.01H1224.08L1204.45 450.524L1225.92 474.869H1212.3Z" fill="black"/>
<path d="M1225.92 451.571C1225.92 437.435 1236.39 427.225 1251.05 427.225C1265.71 427.225 1276.18 437.435 1276.18 451.571C1276.18 465.707 1265.71 475.916 1251.05 475.916C1236.39 475.916 1225.92 465.707 1225.92 451.571ZM1265.18 451.571C1265.18 442.67 1259.42 436.649 1251.05 436.649C1242.67 436.649 1236.91 442.67 1236.91 451.571C1236.91 460.471 1242.67 466.492 1251.05 466.492C1259.42 466.492 1265.18 460.471 1265.18 451.571Z" fill="black"/>
<path d="M1316.23 428.01H1326.7V474.869H1316.23V456.021H1295.29V474.869H1284.82V428.01H1295.29V446.597H1316.23V428.01Z" fill="black"/>
<path d="M1349.21 474.869V437.435H1332.98V428.01H1375.65V437.435H1359.42V474.869H1349.21Z" fill="black"/>
<path d="M1420.68 448.691V474.869H1413.09L1410.99 467.539C1408.64 471.466 1403.67 475.916 1396.07 475.916C1386.65 475.916 1379.84 469.634 1379.84 460.995C1379.84 452.356 1386.65 446.335 1400.52 446.335H1410.73C1410.21 440.314 1407.07 436.126 1401.31 436.126C1396.6 436.126 1393.46 438.744 1391.88 441.623L1382.46 440.053C1384.82 431.937 1392.93 427.225 1401.83 427.225C1413.35 427.225 1420.68 435.079 1420.68 448.691ZM1410.47 454.45H1400.79C1392.93 454.45 1390.31 457.068 1390.31 460.471C1390.31 464.398 1393.46 467.016 1398.69 467.016C1405.5 467.016 1410.47 462.042 1410.47 454.45Z" fill="black"/>
<path d="M1461 474.869L1444.76 456.283H1442.15V474.869H1431.68V428.01H1442.15V446.073H1444.76L1460.47 428.01H1472.78L1453.14 450.524L1474.61 474.869H1461Z" fill="black"/>
<path d="M1493.46 474.869V437.435H1477.23V428.01H1519.9V437.435H1503.67V474.869H1493.46Z" fill="black"/>
<path d="M1572.25 454.45H1534.56C1535.6 461.78 1540.84 466.492 1548.69 466.492C1554.19 466.492 1558.38 464.136 1560.73 460.733L1570.42 462.304C1567.02 471.204 1557.85 475.916 1547.91 475.916C1533.77 475.916 1523.56 465.707 1523.56 451.571C1523.56 437.435 1533.77 427.225 1547.91 427.225C1562.04 427.225 1572.25 437.435 1572.25 451.047C1572.51 452.356 1572.25 453.403 1572.25 454.45ZM1535.34 446.335H1561.26C1559.42 440.576 1554.71 436.388 1548.17 436.388C1541.89 436.126 1536.91 440.314 1535.34 446.335Z" fill="black"/>
<path d="M1000 448C1000 425.373 1000 414.059 1007.03 407.029C1014.06 400 1025.37 400 1048 400H1052C1074.63 400 1085.94 400 1092.97 407.029C1100 414.059 1100 425.373 1100 448V452C1100 474.627 1100 485.941 1092.97 492.971C1085.94 500 1074.63 500 1052 500H1048C1025.37 500 1014.06 500 1007.03 492.971C1000 485.941 1000 474.627 1000 452V448Z" fill="#0077FF"/>
<path d="M1053.21 472.042C1030.42 472.042 1017.42 456.417 1016.88 430.417H1028.29C1028.67 449.5 1037.08 457.583 1043.75 459.25V430.417H1054.5V446.875C1061.08 446.167 1068 438.667 1070.33 430.417H1081.08C1079.29 440.584 1071.79 448.083 1066.46 451.167C1071.79 453.667 1080.33 460.208 1083.58 472.042H1071.75C1069.21 464.125 1062.88 458 1054.5 457.167V472.042H1053.21Z" fill="white"/>
<rect x="1974" y="300" width="774" height="300" rx="64" fill="black"/>
<path d="M2247.56 462.042C2247.56 469.634 2240.49 475.131 2230.54 475.131H2207.24V428.01H2229.76C2239.44 428.01 2246.25 433.246 2246.25 440.576C2246.25 445.55 2243.63 448.691 2239.7 450.524C2243.89 452.094 2247.56 456.283 2247.56 462.042ZM2217.45 436.649V446.859H2229.49C2233.16 446.859 2235.52 444.764 2235.52 441.885C2235.52 439.005 2232.9 436.649 2229.49 436.649H2217.45ZM2230.54 466.492C2234.47 466.492 2237.35 464.136 2237.35 460.733C2237.35 457.33 2234.73 454.974 2230.54 454.974H2217.45V466.492H2230.54Z" fill="white"/>
<path d="M2286.04 474.869L2269.81 456.283H2267.19V474.869H2256.72V428.01H2267.19V446.073H2269.81L2285.52 428.01H2297.82L2278.19 450.524L2299.65 474.869H2286.04Z" fill="white"/>
<path d="M2299.65 451.571C2299.65 437.435 2310.12 427.225 2324.78 427.225C2339.44 427.225 2349.91 437.435 2349.91 451.571C2349.91 465.707 2339.44 475.916 2324.78 475.916C2310.12 475.916 2299.65 465.707 2299.65 451.571ZM2338.92 451.571C2338.92 442.67 2333.16 436.649 2324.78 436.649C2316.41 436.649 2310.65 442.67 2310.65 451.571C2310.65 460.471 2316.41 466.492 2324.78 466.492C2333.16 466.492 2338.92 460.471 2338.92 451.571Z" fill="white"/>
<path d="M2389.97 428.01H2400.44V474.869H2389.97V456.021H2369.02V474.869H2358.55V428.01H2369.02V446.597H2389.97V428.01Z" fill="white"/>
<path d="M2422.95 474.869V437.435H2406.72V428.01H2449.39V437.435H2433.16V474.869H2422.95Z" fill="white"/>
<path d="M2494.42 448.691V474.869H2486.82L2484.73 467.539C2482.37 471.466 2477.4 475.916 2469.81 475.916C2460.38 475.916 2453.58 469.634 2453.58 460.995C2453.58 452.356 2460.38 446.335 2474.26 446.335H2484.47C2483.94 440.314 2480.8 436.126 2475.04 436.126C2470.33 436.126 2467.19 438.744 2465.62 441.623L2456.2 440.053C2458.55 431.937 2466.67 427.225 2475.57 427.225C2487.09 427.225 2494.42 435.079 2494.42 448.691ZM2484.21 454.45H2474.52C2466.67 454.45 2464.05 457.068 2464.05 460.471C2464.05 464.398 2467.19 467.016 2472.43 467.016C2479.23 467.016 2484.21 462.042 2484.21 454.45Z" fill="white"/>
<path d="M2534.73 474.869L2518.5 456.283H2515.88V474.869H2505.41V428.01H2515.88V446.073H2518.5L2534.21 428.01H2546.51L2526.88 450.524L2548.34 474.869H2534.73Z" fill="white"/>
<path d="M2567.19 474.869V437.435H2550.96V428.01H2593.63V437.435H2577.4V474.869H2567.19Z" fill="white"/>
<path d="M2645.99 454.45H2608.29C2609.34 461.78 2614.57 466.492 2622.43 466.492C2627.92 466.492 2632.11 464.136 2634.47 460.733L2644.15 462.304C2640.75 471.204 2631.59 475.916 2621.64 475.916C2607.5 475.916 2597.3 465.707 2597.3 451.571C2597.3 437.435 2607.5 427.225 2621.64 427.225C2635.78 427.225 2645.99 437.435 2645.99 451.047C2646.25 452.356 2645.99 453.403 2645.99 454.45ZM2609.08 446.335H2634.99C2633.16 440.576 2628.45 436.388 2621.9 436.388C2615.62 436.126 2610.65 440.314 2609.08 446.335Z" fill="white"/>
<path fill-rule="evenodd" clip-rule="evenodd" d="M2080.76 407.029C2073.74 414.059 2073.74 425.373 2073.74 448V452C2073.74 474.627 2073.74 485.941 2080.76 492.971C2087.79 500 2099.11 500 2121.74 500H2125.74C2148.36 500 2159.68 500 2166.71 492.971C2173.74 485.941 2173.74 474.627 2173.74 452V448C2173.74 425.373 2173.74 414.059 2166.71 407.029C2159.68 400 2148.36 400 2125.74 400H2121.74C2099.11 400 2087.79 400 2080.76 407.029ZM2090.61 430.417C2091.15 456.417 2104.15 472.042 2126.94 472.042H2128.24V457.167C2136.61 458 2142.94 464.125 2145.49 472.042H2157.32C2154.07 460.208 2145.53 453.667 2140.19 451.167C2145.53 448.083 2153.03 440.584 2154.82 430.417H2144.07C2141.73 438.667 2134.82 446.167 2128.24 446.875V430.417H2117.49V459.25C2110.82 457.583 2102.4 449.5 2102.03 430.417H2090.61Z" fill="white"/>
<rect x="3048" y="300" width="300" height="300" rx="64" fill="black"/>
<path fill-rule="evenodd" clip-rule="evenodd" d="M3155.03 407.029C3148 414.059 3148 425.373 3148 448V452C3148 474.627 3148 485.941 3155.03 492.971C3162.06 500 3173.37 500 3196 500H3200C3222.63 500 3233.94 500 3240.97 492.971C3248 485.941 3248 474.627 3248 452V448C3248 425.373 3248 414.059 3240.97 407.029C3233.94 400 3222.63 400 3200 400H3196C3173.37 400 3162.06 400 3155.03 407.029ZM3164.88 430.417C3165.42 456.417 3178.42 472.042 3201.21 472.042H3202.5V457.167C3210.88 458 3217.21 464.125 3219.75 472.042H3231.58C3228.33 460.208 3219.79 453.667 3214.46 451.167C3219.79 448.083 3227.29 440.584 3229.08 430.417H3218.33C3216 438.667 3209.08 446.167 3202.5 446.875V430.417H3191.75V459.25C3185.08 457.583 3176.67 449.5 3176.29 430.417H3164.88Z" fill="white"/>
<rect x="3648" y="300" width="774" height="300" rx="64" fill="white"/>
<path d="M3921.82 462.042C3921.82 469.634 3914.75 475.131 3904.81 475.131H3881.51V428.01H3904.02C3913.71 428.01 3920.51 433.246 3920.51 440.576C3920.51 445.55 3917.9 448.691 3913.97 450.524C3918.16 452.094 3921.82 456.283 3921.82 462.042ZM3891.72 436.649V446.859H3903.76C3907.42 446.859 3909.78 444.764 3909.78 441.885C3909.78 439.005 3907.16 436.649 3903.76 436.649H3891.72ZM3904.81 466.492C3908.73 466.492 3911.61 464.136 3911.61 460.733C3911.61 457.33 3908.99 454.974 3904.81 454.974H3891.72V466.492H3904.81Z" fill="black"/>
<path d="M3960.3 474.869L3944.07 456.283H3941.46V474.869H3930.98V428.01H3941.46V446.073H3944.07L3959.78 428.01H3972.08L3952.45 450.524L3973.92 474.869H3960.3Z" fill="black"/>
<path d="M3973.92 451.571C3973.92 437.435 3984.39 427.225 3999.05 427.225C4013.71 427.225 4024.18 437.435 4024.18 451.571C4024.18 465.707 4013.71 475.916 3999.05 475.916C3984.39 475.916 3973.92 465.707 3973.92 451.571ZM4013.18 451.571C4013.18 442.67 4007.42 436.649 3999.05 436.649C3990.67 436.649 3984.91 442.67 3984.91 451.571C3984.91 460.471 3990.67 466.492 3999.05 466.492C4007.42 466.492 4013.18 460.471 4013.18 451.571Z" fill="black"/>
<path d="M4064.23 428.01H4074.7V474.869H4064.23V456.021H4043.29V474.869H4032.82V428.01H4043.29V446.597H4064.23V428.01Z" fill="black"/>
<path d="M4097.21 474.869V437.435H4080.98V428.01H4123.65V437.435H4107.42V474.869H4097.21Z" fill="black"/>
<path d="M4168.68 448.691V474.869H4161.09L4158.99 467.539C4156.64 471.466 4151.66 475.916 4144.07 475.916C4134.65 475.916 4127.84 469.634 4127.84 460.995C4127.84 452.356 4134.65 446.335 4148.52 446.335H4158.73C4158.21 440.314 4155.07 436.126 4149.31 436.126C4144.6 436.126 4141.46 438.744 4139.88 441.623L4130.46 440.053C4132.82 431.937 4140.93 427.225 4149.83 427.225C4161.35 427.225 4168.68 435.079 4168.68 448.691ZM4158.47 454.45H4148.79C4140.93 454.45 4138.31 457.068 4138.31 460.471C4138.31 464.398 4141.46 467.016 4146.69 467.016C4153.5 467.016 4158.47 462.042 4158.47 454.45Z" fill="black"/>
<path d="M4208.99 474.869L4192.76 456.283H4190.15V474.869H4179.68V428.01H4190.15V446.073H4192.76L4208.47 428.01H4220.77L4201.14 450.524L4222.61 474.869H4208.99Z" fill="black"/>
<path d="M4241.46 474.869V437.435H4225.23V428.01H4267.9V437.435H4251.66V474.869H4241.46Z" fill="black"/>
<path d="M4320.25 454.45H4282.55C4283.6 461.78 4288.84 466.492 4296.69 466.492C4302.19 466.492 4306.38 464.136 4308.73 460.733L4318.42 462.304C4315.02 471.204 4305.85 475.916 4295.91 475.916C4281.77 475.916 4271.56 465.707 4271.56 451.571C4271.56 437.435 4281.77 427.225 4295.91 427.225C4310.04 427.225 4320.25 437.435 4320.25 451.047C4320.51 452.356 4320.25 453.403 4320.25 454.45ZM4283.34 446.335H4309.26C4307.42 440.576 4302.71 436.388 4296.17 436.388C4289.88 436.126 4284.91 440.314 4283.34 446.335Z" fill="black"/>
<path fill-rule="evenodd" clip-rule="evenodd" d="M3755.03 407.029C3748 414.059 3748 425.373 3748 448V452C3748 474.627 3748 485.941 3755.03 492.971C3762.06 500 3773.37 500 3796 500H3800C3822.63 500 3833.94 500 3840.97 492.971C3848 485.941 3848 474.627 3848 452V448C3848 425.373 3848 414.059 3840.97 407.029C3833.94 400 3822.63 400 3800 400H3796C3773.37 400 3762.06 400 3755.03 407.029ZM3764.88 430.417C3765.42 456.417 3778.42 472.042 3801.21 472.042H3802.5V457.167C3810.88 458 3817.21 464.125 3819.75 472.042H3831.58C3828.33 460.208 3819.79 453.667 3814.46 451.167C3819.79 448.083 3827.29 440.584 3829.08 430.417H3818.33C3816 438.667 3809.08 446.167 3802.5 446.875V430.417H3791.75V459.25C3785.08 457.583 3776.67 449.5 3776.29 430.417H3764.88Z" fill="black"/>
<rect x="4722" y="300" width="300" height="300" rx="64" fill="white"/>
<path fill-rule="evenodd" clip-rule="evenodd" d="M4829.03 407.029C4822 414.059 4822 425.373 4822 448V452C4822 474.627 4822 485.941 4829.03 492.971C4836.06 500 4847.37 500 4870 500H4874C4896.63 500 4907.94 500 4914.97 492.971C4922 485.941 4922 474.627 4922 452V448C4922 425.373 4922 414.059 4914.97 407.029C4907.94 400 4896.63 400 4874 400H4870C4847.37 400 4836.06 400 4829.03 407.029ZM4838.88 430.417C4839.42 456.417 4852.42 472.042 4875.21 472.042H4876.5V457.167C4884.88 458 4891.21 464.125 4893.75 472.042H4905.58C4902.33 460.208 4893.79 453.667 4888.46 451.167C4893.79 448.083 4901.29 440.584 4903.08 430.417H4892.33C4890 438.667 4883.08 446.167 4876.5 446.875V430.417H4865.75V459.25C4859.08 457.583 4850.67 449.5 4850.29 430.417H4838.88Z" fill="black"/>
</svg>
